<svg height="486pt" viewBox="0 -58 486.00079 486" width="486pt" xmlns="http://www.w3.org/2000/svg"><path d="m463.109375 264.339844v.070312c9.328125 0 16.890625 7.5625 16.890625 16.890625s-7.5625 16.890625-16.890625 16.890625h.511719c9.046875 0 16.382812 7.335938 16.382812 16.382813 0 9.050781-7.335937 16.386719-16.382812 16.386719h-7.472656c9.007812 0 16.3125 7.300781 16.3125 16.308593 0 9.007813-7.304688 16.3125-16.3125 16.3125h-47.726563c-8.5 0-16.921875-.171875-25.023437-1.460937-8.171876-1.144532-16.035157-3.925782-23.109376-8.179688-14.449218-8.96875-31.121093-13.722656-48.128906-13.722656h-13.53125v-109.488281h14.679688c13-.003907 25.210937-6.230469 32.851562-16.75 12.800782-17.777344 21.203125-38.335938 24.519532-59.988281l3.101562-20.273438c15.246094 0 27.609375 12.363281 27.609375 27.613281v5.609375c0 9.117188-1.640625 18.160156-4.839844 26.699219-2.644531 7.03125-4 14.484375-4 22-.003906 2.265625.121094 4.527344.371094 6.78125.699219 6.410156 6.117187 11.265625 12.566406 11.269531h59.191407c8.464843 0 15.324218 6.859375 15.324218 15.324219s-6.859375 15.324219-15.324218 15.324219zm0 0" fill="#f7caa5"/><path d="m230 294.582031v-85.363281h68.628906v150.03125h-68.628906zm0 0" fill="#cc7350"/><path d="m294.578125 208.691406v.527344h-51.949219v-30.066406h51.949219zm0 0" fill="#6fe3ff"/><path d="m242.628906 121.429688h51.949219v57.722656h-51.949219zm0 0" fill="#f8ec7d"/><path d="m242.628906 63.71875h51.949219v57.710938h-51.949219zm0 0" fill="#6fe3ff"/><path d="m242.628906 6h51.949219v57.71875h-51.949219zm0 0" fill="#f8ec7d"/><path d="m242.628906 208.589844v.628906h-12.628906v85.363281h-172.058594v-288.582031h184.6875zm-33.308594-58.300782c0-32.601562-26.429687-59.027343-59.03125-59.027343-32.601562 0-59.027343 26.425781-59.027343 59.027343 0 32.601563 26.425781 59.03125 59.027343 59.03125 32.605469.003907 59.035157-26.425781 59.03125-59.03125zm0 0" fill="#e48e66"/><path d="m150.289062 91.269531c32.597657.003907 59.023438 26.433594 59.019532 59.03125 0 32.597657-26.429688 59.023438-59.027344 59.019531-32.601562-.003906-59.023438-26.429687-59.019531-59.03125 0-32.597656 26.429687-59.023437 59.027343-59.019531zm-11.6875 82.402344 35.179688-23.382813-35.179688-23.367187zm0 0" fill="#f8ec7d"/><path d="m173.78125 150.289062-35.179688 23.382813v-46.75zm0 0" fill="#6fe3ff"/><path d="m6 236.871094h51.941406v57.710937h-51.941406zm0 0" fill="#f8ec7d"/><path d="m6 179.152344h51.941406v57.71875h-51.941406zm0 0" fill="#6fe3ff"/><path d="m6 121.429688h51.941406v57.722656h-51.941406zm0 0" fill="#f8ec7d"/><path d="m6 63.71875h51.941406v57.710938h-51.941406zm0 0" fill="#6fe3ff"/><path d="m6 6h51.941406v57.71875h-51.941406zm0 0" fill="#f8ec7d"/><g fill="#63316d"><path d="m150.289062 85.269531c-35.910156.003907-65.023437 29.117188-65.019531 65.03125.003907 35.910157 29.117188 65.023438 65.03125 65.019531 35.910157-.003906 65.023438-29.117187 65.019531-65.03125-.042968-35.894531-29.136718-64.980468-65.03125-65.019531zm0 118.050781c-29.28125-.003906-53.019531-23.742187-53.019531-53.027343 0-29.28125 23.738281-53.023438 53.023438-53.023438 29.285156 0 53.023437 23.738281 53.027343 53.019531-.035156 29.273438-23.757812 53-53.03125 53.03125zm0 0"/><path d="m177.101562 145.289062-35.183593-23.367187c-1.839844-1.226563-4.207031-1.335937-6.15625-.289063-1.949219 1.042969-3.164063 3.078126-3.164063 5.289063v46.75c0 2.210937 1.214844 4.242187 3.164063 5.289063 1.949219 1.046874 4.316406.933593 6.160156-.289063l35.179687-23.382813c1.675782-1.109374 2.683594-2.988281 2.683594-5 0-2.007812-1.007812-3.886718-2.683594-5zm-32.5 17.1875v-24.371093l18.335938 12.183593zm0 0"/><path d="m486 249.011719c-.003906-11.773438-9.546875-21.316407-21.320312-21.320313h-59.191407c-3.394531.003906-6.242187-2.554687-6.605469-5.929687-.222656-2.035157-.332031-4.078125-.332031-6.121094-.003906-6.796875 1.222657-13.535156 3.617188-19.894531 3.453125-9.210938 5.222656-18.96875 5.222656-28.804688v-5.609375c-.023437-18.554687-15.058594-33.589843-33.609375-33.613281-2.964844.003906-5.484375 2.164062-5.929688 5.09375l-3.101562 20.269531c-3.195312 20.699219-11.226562 40.355469-23.441406 57.371094-6.511719 8.964844-16.921875 14.273437-28 14.277344h-8.679688v-15.511719c-.003906-2.558594-1.628906-4.835938-4.050781-5.667969v-197.550781c0-3.3125-2.6875-6-6-6h-288.578125c-3.3125 0-6 2.6875-6 6v288.582031c0 3.3125 2.6875 6 6 6h218v58.667969c0 3.3125 2.6875 6 6 6h68.628906c3.316406 0 6-2.6875 6-6v-13.03125h7.53125c15.890625-.003906 31.46875 4.4375 44.96875 12.824219 7.75 4.671875 16.367188 7.734375 25.328125 9 8.890625 1.414062 18.0625 1.53125 25.964844 1.53125h47.726563c8.367187.011719 16.035156-4.664063 19.855468-12.109375 3.816406-7.445313 3.144532-16.398438-1.746094-23.1875 6.382813-3.449219 10.695313-9.777344 11.578126-16.980469.878906-7.199219-1.785157-14.378906-7.148438-19.261719.199219-.1875.40625-.355468.597656-.546875 4.355469-4.34375 6.777344-10.261719 6.714844-16.414062-.0625-6.148438-2.601562-12.015625-7.042969-16.269531 4.480469-4.03125 7.039063-9.769532 7.042969-15.792969zm-237.371094-237.011719h39.949219v45.71875h-39.949219zm0 57.71875h39.949219v45.710938h-39.949219zm0 57.710938h39.949219v45.722656h-39.949219zm0 57.722656h39.949219v18.066406h-39.949219zm-196.6875 103.429687h-39.941406v-45.710937h39.941406zm0-57.710937h-39.941406v-45.71875h39.941406zm0-57.71875h-39.941406v-45.722656h39.941406zm0-57.722656h-39.941406v-45.710938h39.941406zm0-57.710938h-39.941406v-45.71875h39.941406zm172.058594 151.5v79.363281h-160.058594v-276.582031h172.6875v191.21875h-6.628906c-3.3125 0-6 2.6875-6 6zm68.628906 144.03125h-56.628906v-138.03125h56.628906zm147.921875-82.839844h22.558594c6.011719.003906 10.886719 4.878906 10.890625 10.890625-.003906 6.011719-4.878906 10.882813-10.890625 10.890625h-22.558594c-3.316406 0-6 2.683594-6 6 0 3.3125 2.683594 6 6 6h23.070313c4.199218 0 7.988281 2.535156 9.589844 6.417969 1.605468 3.882813.714843 8.347656-2.261719 11.316406-1.9375 1.953125-4.578125 3.046875-7.328125 3.035157h-33.261719c-3.3125 0-6 2.6875-6 6s2.6875 6 6 6h25.789063c5.695312 0 10.3125 4.617187 10.3125 10.308593 0 5.695313-4.617188 10.3125-10.3125 10.3125h-47.726563c-7.441406 0-16.054687-.109375-24.078125-1.386719-7.386719-1.023437-14.492188-3.523437-20.890625-7.351562-15.398437-9.5625-33.164063-14.628906-51.292969-14.625h-7.53125v-97.488281h8.679688c14.929687-.003907 28.953125-7.15625 37.71875-19.238281 13.332031-18.5625 22.097656-40.007813 25.582031-62.589844l2.230469-14.578125c9.699218 2.347656 16.535156 11.027343 16.550781 21.007812v5.609375c0 8.394532-1.507813 16.726563-4.457031 24.589844-3.78125 10.054688-5.144532 20.859375-3.980469 31.539062 1.023437 9.464844 9.019531 16.632813 18.535156 16.621094h59.191407c5.148437 0 9.324218 4.175782 9.324218 9.324219s-4.175781 9.324219-9.324218 9.324219h-14.109376c-.292968.003906-.582031.027344-.871093.070312h-9.148438c-3.316406 0-6 2.6875-6 6s2.683594 6 6 6zm0 0"/></g></svg>