<svg height="481pt" viewBox="-60 0 481 481.54054" width="481pt" xmlns="http://www.w3.org/2000/svg"><path d="m356.269531 152.539062-37.597656 298.890626h-44.363281l19.292968-298.890626zm0 0" fill="#cc7350"/><path d="m157.820312 57.839844c.65625-5.847656 3.941407-11.074219 8.925782-14.199219 4.988281-3.125 11.125-3.808594 16.675781-1.851563 5.988281-7.410156 15.242187-11.394531 24.742187-10.648437 9.5.742187 18.023438 6.117187 22.785157 14.371094h.03125c4.898437-.011719 9.71875 1.234375 14 3.617187 1.257812-4.523437 3.292969-8.792968 6.019531-12.617187-4.453125-6.195313-4.835938-14.429688-.976562-21.007813 3.859374-6.578125 11.234374-10.265625 18.808593-9.402344 7.578125.863282 13.9375 6.109376 16.21875 13.390626h.007813c22.074218.683593 39.527344 18.921874 39.242187 41.003906-.285156 22.082031-18.207031 39.863281-40.289062 39.972656l-1.222657.210938c-1.453124-8.976563-8.847656-15.804688-17.914062-16.535157-9.0625-.734375-17.457031 4.816407-20.335938 13.445313-6.113281.148437-11.597656 3.789062-14.113281 9.363281s-1.609375 12.097656 2.324219 16.777344c3.9375 4.679687 10.207031 6.691406 16.128906 5.171875 2.144532 8.320312 10.054688 13.820312 18.601563 12.9375 8.546875-.886719 15.160156-7.894532 15.550781-16.480469 5.203125-8.511719 15.042969-13.023437 24.890625-11.410156 1.925781-2.085938 4.207031-3.8125 6.738281-5.097657-1.609375-7.109374 1.675782-14.429687 8.0625-17.945312 6.382813-3.519531 14.324219-2.386719 19.476563 2.773438 5.148437 5.160156 6.261719 13.101562 2.730469 19.480468-.222657.402344-.464844.792969-.730469 1.171875 5.070312 5.675781 7.214843 13.386719 5.8125 20.867188-1.40625 7.480469-6.199219 13.886719-12.980469 17.339843h-117.101562c.058593-.128906.121093-.269531.179687-.410156 3.300781-7.835937 1.222656-16.90625-5.160156-22.527344 3.144531-8.101562-.789063-17.226562-8.839844-20.496093s-17.234375.527343-20.628906 8.523437c-.519531 1.21875-.878907 2.5-1.070313 3.8125-7.875-1.171875-15.535156 3.164063-18.585937 10.515625-3.046875 7.351563-.707031 15.839844 5.6875 20.582031h-58.761719v-.96875c-2.761719-8.789062-1.171875-18.363281 4.277344-25.789062 5.453125-7.425781 14.113281-11.8125 23.324218-11.8125 1.152344 0 2.304688.070312 3.449219.210938-2.273437-4.210938-3.457031-8.921876-3.449219-13.710938l.089844-.160156c-10.078125-5.765625-14.320312-18.105469-9.921875-28.851563 4.394531-10.742187 16.074219-16.566406 27.300781-13.617187zm0 0" fill="#f8ec7d"/><path d="m293.601562 152.539062-19.292968 298.890626h-43.378906v-298.890626zm0 0" fill="#6fe3ff"/><path d="m283.050781 124.582031c0 .257813-.011719.519531-.019531.777344-.390625 8.585937-7.003906 15.59375-15.550781 16.480469-8.546875.882812-16.457031-4.617188-18.601563-12.9375-5.910156 1.492187-12.15625-.527344-16.074218-5.203125-3.917969-4.671875-4.820313-11.171875-2.320313-16.734375 2.5-5.558594 7.960937-9.203125 14.054687-9.375 2.878907-8.628906 11.273438-14.179688 20.335938-13.445313 9.066406.730469 16.460938 7.558594 17.914062 16.535157.796876 4.839843-.246093 9.800781-2.917968 13.910156 2.074218 2.917968 3.183594 6.410156 3.179687 9.992187zm0 0" fill="#e2d574"/><path d="m230.929688 152.539062v298.890626h-43.390626l-9.148437-141.789063c8.714844-2.210937 14.847656-10.019531 14.929687-19.011719-.089843-9.941406-7.539062-18.273437-17.410156-19.46875l-.5-7.710937-7.160156-110.910157h3.269531c4.023438 2.984376 9.140625 4.082032 14.03125 3.011719 4.023438 5.921875 10.9375 9.207031 18.074219 8.582031 7.132812-.625 13.371094-5.058593 16.304688-11.59375zm0 0" fill="#cc7350"/><path d="m214.949219 129.601562c6.382812 5.621094 8.460937 14.691407 5.160156 22.527344-.058594.140625-.121094.28125-.179687.410156-2.933594 6.535157-9.171876 10.96875-16.304688 11.59375-7.136719.625-14.050781-2.660156-18.074219-8.582031-4.890625 1.070313-10.007812-.027343-14.03125-3.011719h-.007812c-6.394531-4.742187-8.734375-13.230468-5.6875-20.582031 3.050781-7.351562 10.710937-11.6875 18.585937-10.515625.191406-1.3125.550782-2.59375 1.070313-3.8125 3.394531-7.996094 12.578125-11.792968 20.628906-8.523437s11.984375 12.394531 8.839844 20.496093zm0 0" fill="#e2d574"/><path d="m187.53125 276.820312c3.6875 3.652344 5.769531 8.621094 5.789062 13.808594-.082031 8.992188-6.214843 16.800782-14.929687 19.011719-1.523437.386719-3.089844.582031-4.660156.578125h-148.21875c-5.121094.023438-10.035157-2.015625-13.632813-5.660156-5.527344-5.664063-7.132812-14.082032-4.085937-21.386719s10.164062-12.082031 18.078125-12.140625h147.859375c.726562-.003906 1.457031.039062 2.179687.128906 4.402344.519532 8.496094 2.515625 11.621094 5.660156zm0 0" fill="#f8ec7d"/><path d="m178.390625 309.640625 9.148437 141.789063h-30.207031l6.058594-138.359376v-2.851562h10.339844c1.570312.003906 3.136719-.191406 4.660156-.578125zm0 0" fill="#6fe3ff"/><path d="m168.25 152.539062 7.160156 110.910157-2.960937.191406c-2.648438-33.640625-27.949219-61.109375-61.257813-66.511719l-5.609375-44.589844zm0 0" fill="#6fe3ff"/><path d="m74.289062 200.742188c21.488282-7.945313 45.453126-5.347657 64.742188 7.011718 19.285156 12.355469 31.65625 33.046875 33.417969 55.886719.140625 1.851563.210937 3.71875.210937 5.609375v1.78125h-146.078125v-1.78125c.042969-30.554688 19.0625-57.867188 47.707031-68.507812zm0 0" fill="#e48e66"/><path d="m157.332031 451.429688-.402343 9.121093c-.375 8.382813-7.277344 14.988281-15.667969 14.988281h-83.292969c-8.386719 0-15.289062-6.605468-15.660156-14.988281l-.886719-20.359375h67.839844v-96.550781h-71.171875l-.910156.039063-1.339844-30.609376v-2.851562h127.550781v2.851562zm0 0" fill="#e48e66"/><path d="m109.261719 343.640625v96.550781h-67.839844l-4.242187-96.511718.910156-.039063zm0 0" fill="#f8ec7d"/><path d="m356.269531 146.539062h-4.308593c.21875-.355468.445312-.707031.648437-1.074218 5.515625-9.996094 5.011719-22.226563-1.304687-31.730469 3.253906-7.933594 1.6875-17.03125-4.035157-23.417969-5.71875-6.390625-14.589843-8.945312-22.835937-6.578125-.199219.058594-.398438.140625-.597656.203125 8.171874-13.570312 8.871093-30.367187 1.855468-44.566406-7.011718-14.203125-20.773437-23.855469-36.515625-25.613281-6.320312-12.347657-21.410156-17.292969-33.816406-11.09375-12.40625 6.203125-17.5 21.242187-11.417969 33.707031-.910156 1.535156-1.726562 3.125-2.453125 4.753906-2.332031-.734375-4.734375-1.222656-7.167969-1.457031-5.9375-8.308594-15.21875-13.605469-25.390624-14.488281-10.175782-.882813-20.230469 2.730468-27.511719 9.894531-12.007813-2.128906-23.828125 4.621094-28.097657 16.046875-.464843-.023438-.929687-.042969-1.394531-.042969-12.558593-.003906-23.703125 8.039063-27.65625 19.957031-3.957031 11.917969.171875 25.03125 10.238281 32.535157.140626 1.605469.390626 3.195312.746094 4.765625-18.570312 2.640625-31.6875 19.558594-29.617187 38.203125h-.050781c-1.722657 0-3.359376.738281-4.5 2.03125-1.136719 1.289062-1.667969 3.007812-1.453126 4.714843l4.664063 37.074219c-1.550781-.089843-3.109375-.152343-4.671875-.152343-7.183594-.003907-14.335938.976562-21.257812 2.914062l-11.449219-40.246094c-.574219-2.019531-2.164063-3.589844-4.1875-4.144531l-29.929688-8.191406c-3.183593-.835938-6.449219 1.042969-7.316406 4.21875-.871094 3.175781.980469 6.457031 4.148437 7.355469l26.667969 7.300781 10.761719 37.832031c-27 12.324219-44.886719 38.667969-46.386719 68.308594-9.1875 1.957031-16.582031 8.753906-19.300781 17.746094-2.71875 8.992187-.332031 18.75 6.230469 25.46875 4.71875 4.792968 11.175781 7.480468 17.902343 7.445312h4.460938l6.34375 144.601562c.492188 11.597657 10.050781 20.742188 21.65625 20.71875h83.292969c11.609375.023438 21.171875-9.125 21.664062-20.726562l.144531-3.382812h155.601563c3.023437 0 5.574219-2.25 5.953125-5.25l37.597656-298.890626c.214844-1.707031-.3125-3.425781-1.453125-4.71875-1.140625-1.289062-2.777343-2.03125-4.5-2.03125zm-35.757812-39.015624c-1.019531-4.496094 1.058593-9.125 5.09375-11.355469 4.035156-2.230469 9.058593-1.527344 12.324219 1.726562 3.265624 3.253907 3.988281 8.277344 1.773437 12.320313-.101563.179687-.277344.480468-.367187.605468-1.644532 2.28125-1.484376 5.398438.386718 7.5 3.671875 4.113282 5.324219 9.652344 4.503906 15.105469-.820312 5.453125-4.027343 10.257813-8.746093 13.113281h-61.824219c8.277344-2.992187 14.164062-10.394531 15.214844-19.136718 4.078125-5.769532 11.105468-8.699219 18.078125-7.53125 1.992187.328125 4.019531-.371094 5.386719-1.859375 1.445312-1.5625 3.15625-2.855469 5.050781-3.816407 2.445312-1.246093 3.730469-3.996093 3.125-6.671874zm-45.535157 10.535156c1.351563 1.90625 2.078126 4.183594 2.074219 6.519531 0 .167969-.007812.332031-.011719.46875v.046875c-.261718 5.613281-4.585937 10.195312-10.175781 10.773438-5.589843.578124-10.761719-3.015626-12.167969-8.457032-.824218-3.210937-4.089843-5.144531-7.300781-4.324218-.792969.207031-1.609375.3125-2.429687.3125-5.417969-.007813-9.820313-4.359376-9.894532-9.773438-.074218-5.414062 4.214844-9.882812 9.625-10.039062 2.527344-.0625 4.746094-1.703126 5.542969-4.101563 2.007813-6.007813 7.855469-9.867187 14.167969-9.351563 6.3125.515626 11.457031 5.273438 12.464844 11.527344.550781 3.363282-.175782 6.8125-2.035156 9.667969-1.335938 2.0625-1.28125 4.730469.140624 6.730469zm12.617188-5.691406c.699219-1.992188 1.148438-4.058594 1.339844-6.160157 7.195312-.765625 14.113281-3.207031 20.191406-7.132812-.621094 2.15625-.914062 4.398437-.867188 6.644531-.863281.609375-1.695312 1.261719-2.488281 1.957031-6.402343-.394531-12.765625 1.246094-18.175781 4.691407zm-124.96875 46.171874 4.5 69.691407c-11.191406-18.449219-29.449219-31.515625-50.523438-36.160157l-4.21875-33.53125zm-87.101562 48.164063c.179687-.035156.355468-.066406.53125-.117187.429687-.132813.84375-.308594 1.234374-.535157 10.5625-3.742187 21.894532-4.773437 32.957032-3 30.566406 4.964844 53.785156 30.171875 56.222656 61.042969.023438.308594.035156.625.054688.9375h-133.796876c1.742188-26.097656 18.425782-48.832031 42.796876-58.328125zm-32.074219 142.9375h59.8125v84.550781h-56.101563zm107.488281 110.644531c-.222656 5.183594-4.492188 9.265625-9.675781 9.253906h-83.292969c-5.179688.007813-9.445312-4.074218-9.664062-9.25l-.617188-14.101562h61.574219c3.3125 0 6-2.683594 6-6v-96.546875c0-3.3125-2.6875-6-6-6h-66.335938l-.941406-21.421875h115.261719zm12.660156-14.855468 5.660156-129.210938h3.542969l8.339844 129.210938zm13.320313-141.605469c-1.042969.265625-2.113281.398437-3.1875.398437h-148.21875c-3.519531.023438-6.894531-1.375-9.363281-3.878906-3.828126-3.945312-4.9375-9.789062-2.824219-14.859375 2.117187-5.074219 7.050781-8.398437 12.546875-8.453125h147.859375c.5-.003906 1.003906.027344 1.5.089844 3.050781.371094 5.890625 1.757812 8.054687 3.941406 2.566406 2.523438 4.019532 5.96875 4.03125 9.566406-.082031 6.246094-4.347656 11.65625-10.398437 13.195313zm34.070312-169.71875c4.453125 3.910156 5.902344 10.234375 3.59375 15.691406l-.125.285156c-2.042969 4.546875-6.386719 7.636719-11.355469 8.070313-4.96875.4375-9.78125-1.847656-12.585937-5.972656-1.378906-2.027344-3.851563-3.011719-6.246094-2.488282-2.28125.503906-4.667969.285156-6.820312-.625-.832031-.355468-1.621094-.804687-2.347657-1.34375-.0625-.042968-.125-.089844-.183593-.132812-4.089844-3.15625-5.527344-8.675782-3.507813-13.425782 2.023438-4.753906 6.996094-7.542968 12.105469-6.789062 1.574219.234375 3.179687-.164062 4.460937-1.113281 1.28125-.945313 2.132813-2.363281 2.367188-3.9375.117188-.8125.339844-1.609375.664062-2.363281 2.105469-4.992188 7.832032-7.367188 12.851563-5.328126 5.019531 2.039063 7.472656 7.734376 5.5 12.78125-.917969 2.351563-.269531 5.027344 1.628906 6.691407zm13.941407 311.324219h-31.757813l-8.5-131.738282c8.863281-4.285156 14.535156-13.21875 14.648437-23.0625-.003906-6.78125-2.722656-13.285156-7.546874-18.050781-2.855469-2.847656-6.335938-4.988281-10.164063-6.253906l-6.808594-105.464844c2.636719.847656 5.40625 1.210937 8.171875 1.070313 2.488282 2.695312 5.519532 4.828124 8.898438 6.25 3.132812 1.324218 6.5 2.003906 9.902344 2 8.722656 0 16.863281-4.371094 21.683593-11.640626h1.46875zm-3.257813-317.515626c2.082031-11-4.460937-21.804687-15.175781-25.050781-10.714844-3.25-22.152344 2.101563-26.527344 12.410157l-.019531.050781c-7.25.601562-13.804688 4.539062-17.738281 10.65625-3.933594 6.117187-4.796876 13.714843-2.339844 20.558593h-42.15625c-1.074219-6.632812.820312-13.398437 5.179687-18.515624 4.355469-5.113282 10.738281-8.058594 17.457031-8.054688.90625 0 1.8125.054688 2.710938.167969 2.230469.273437 4.421875-.71875 5.6875-2.570313 1.269531-1.851562 1.394531-4.253906.332031-6.230468-.386719-.726563-.738281-1.472657-1.042969-2.234376 1.285157.171876 2.582032.261719 3.882813.261719 3.3125 0 6-2.6875 6-6s-2.6875-6-6-6c-7.351563-.003906-13.882813-4.695312-16.234375-11.664062-2.347656-6.964844.007812-14.652344 5.855469-19.109375 5.84375-4.457032 13.882812-4.6875 19.976562-.574219 1.78125 1.214844 4.074219 1.382813 6.011719.4375 1.9375-.941406 3.21875-2.851563 3.359375-5.003906.140625-2.152344-.882813-4.210938-2.683594-5.398438-1.023437-.675781-2.085937-1.289062-3.1875-1.835937 2.945313-6.101563 10.011719-9.015625 16.402344-6.761719 2.394531.84375 5.066406.089844 6.664063-1.886719 4.746093-5.875 12.082031-9.03125 19.609374-8.441406 7.527344.585938 14.28125 4.847656 18.058594 11.386719 1.082032 1.859375 3.074219 3 5.226563 3 3.875-.003907 7.6875.984375 11.078125 2.863281 1.609375.894531 3.539062 1 5.234375.292969 1.699219-.710938 2.976562-2.160157 3.46875-3.933594 1.066406-3.851563 2.800781-7.488281 5.125-10.742187 1.492187-2.097657 1.480469-4.910157-.023438-6.996094-1.628906-2.25-2.503906-4.957032-2.492187-7.734375 0-6.558594 4.785156-12.136719 11.269531-13.128907 6.480469-.992187 12.71875 2.894532 14.683594 9.148438.769531 2.453125 3.015625 4.144531 5.582031 4.207031 18.253906.472657 32.976562 15.082031 33.585938 33.332031.609374 18.246094-13.105469 33.808594-31.285157 35.496094-3.734375-9.386718-12.609375-15.722656-22.703125-16.207031-10.089844-.480469-19.53125 4.980469-24.144531 13.964844-10.953125 2.351562-18.371094 12.589843-17.1875 23.734375 1.183594 11.140625 10.582031 19.59375 21.789063 19.59375h.023437c2.710937 5.175781 7.261719 9.152344 12.757813 11.136718h-30.171876c.558594-6.742187-1.558593-13.433593-5.898437-18.625zm15.257813 317.515626v-286.890626h50.269531l-18.515625 286.890626zm76.449218 0h-32.667968l18.515624-286.890626h50.242188zm0 0" fill="#63316d"/></svg>