<svg height="483pt" viewBox="-10 0 483 483.75317" width="483pt" xmlns="http://www.w3.org/2000/svg"><path d="m458.355469 229.421875v118.4375c0 28.25-16.929688 63.921875-37.808594 79.8125l-58.058594 44.1875c-10.378906 7.890625-24.746093 7.890625-35.121093 0l-58.050782-44.1875c-20.878906-15.890625-37.808594-51.742187-37.808594-79.8125v-118.621094l22.117188.023438zm0 0" fill="#f8ec7d"/><path d="m262.316406 109.859375c13.578125 24.769531 15.878906 64.179687 5.210938 88.152344l-13.902344 31.226562v.023438l-22.117188-.023438v44.632813h-.132812c-6.476562 6.179687-15.453125 9.015625-24.308594 7.679687l-72.148437-10.839843c-25.953125-3.890626-58.023438-27.191407-71.523438-51.800782l-57.019531-104.019531 199.011719-108.890625zm0 0" fill="#e48e66"/><g fill="#63316d"><path d="m262.296875 299.449219c3.3125 0 6-2.683594 6-6 0-10.296875 8.347656-18.644531 18.644531-18.644531s18.644532 8.347656 18.644532 18.644531c0 3.316406 2.6875 6 6 6s6-2.683594 6-6c0-16.925781-13.71875-30.644531-30.644532-30.644531-16.925781 0-30.644531 13.71875-30.644531 30.644531 0 3.316406 2.6875 6 6 6zm0 0"/><path d="m371.027344 299.449219c3.3125 0 6-2.683594 6-6 0-10.292969 8.34375-18.640625 18.640625-18.640625 10.292969 0 18.636719 8.347656 18.636719 18.640625 0 3.316406 2.6875 6 6 6 3.316406 0 6-2.683594 6-6 0-16.921875-13.714844-30.640625-30.636719-30.640625s-30.640625 13.71875-30.640625 30.640625c0 3.316406 2.683594 6 6 6zm0 0"/><path d="m306.144531 371.890625c0-3.3125-2.683593-6-6-6-3.3125 0-6 2.6875-6 6 0 28.046875 22.738281 50.785156 50.785157 50.785156 28.050781 0 50.785156-22.738281 50.785156-50.785156 0-3.3125-2.683594-6-6-6-3.3125 0-6 2.6875-6 6 0 21.417969-17.363282 38.785156-38.785156 38.785156-21.417969 0-38.785157-17.367187-38.785157-38.785156zm0 0"/><path d="m267.578125 106.976562-56.929687-103.859374c-1.59375-2.90625-5.238282-3.96875-8.140626-2.382813l-199.011718 108.890625c-2.910156 1.59375-3.976563 5.242188-2.378906 8.148438l57.019531 104.023437c14.328125 26.117187 48.371093 50.722656 75.886719 54.847656l72.144531 10.839844c1.753906.265625 3.527343.398437 5.300781.398437 4.835938 0 9.613281-1.011718 14.035156-2.96875v62.945313c0 29.78125 18.023438 67.726563 40.175782 84.585937l58.050781 44.191407c12.535156 9.488281 29.851562 9.488281 42.386719 0l58.058593-44.191407c22.53125-17.144531 40.175781-54.300781 40.175781-84.582031v-118.441406c0-3.316406-2.683593-6-6-6l-195.507812-.15625 10.15625-22.816406c11.519531-25.859375 9.136719-66.921875-5.421875-93.472657zm184.777344 128.4375v112.445313c0 26.5-15.898438 60.164063-35.441407 75.035156l-58.0625 44.195313c-8.234374 6.234375-19.613281 6.234375-27.851562 0l-58.050781-44.191406c-19.210938-14.621094-35.441407-48.980469-35.441407-75.035157v-112.617187l16.113282.015625zm-190.308594-39.84375-12.324219 27.683594-18.210937-.015625h-.003907c-3.316406 0-6 2.6875-6 6v41.773438c-4.960937 3.894531-11.316406 5.5625-17.550781 4.601562l-72.152343-10.84375c-23.863282-3.574219-54.613282-25.898437-67.148438-48.75l-54.132812-98.75 188.484374-103.128906 54.046876 98.601563c12.738281 23.238281 14.976562 60.394531 4.992187 82.828124zm0 0"/><path d="m71.117188 117.671875c-14.8125 8.15625-20.238282 26.757813-12.132813 41.597656 1.019531 1.90625 2.980469 3.117188 5.140625 3.175781 2.15625.054688 4.179688-1.054687 5.292969-2.90625 1.113281-1.847656 1.148437-4.152343.089843-6.035156-4.949218-9.03125-1.640624-20.363281 7.386719-25.3125 9.03125-4.949218 20.363281-1.640625 25.3125 7.386719 1.015625 1.910156 2.976563 3.125 5.136719 3.179687 2.160156.058594 4.1875-1.050781 5.300781-2.902343 1.113281-1.851563 1.148438-4.15625.085938-6.039063-8.148438-14.832031-26.765625-20.265625-41.613281-12.144531zm0 0"/><path d="m159.59375 110.132812c2.117188-.003906 4.078125-1.121093 5.15625-2.945312s1.117188-4.082031.097656-5.9375c-4.953125-9.03125-1.644531-20.367188 7.382813-25.320312 9.03125-4.949219 20.367187-1.644532 25.316406 7.382812 1 1.941406 2.972656 3.1875 5.152344 3.253906 2.179687.066406 4.226562-1.054687 5.339843-2.929687 1.117188-1.875 1.125-4.207031.027344-6.089844-8.183594-14.746094-26.742187-20.113281-41.53125-12.003906-14.789062 8.109375-20.246094 26.640625-12.210937 41.46875 1.054687 1.925781 3.074219 3.121093 5.269531 3.121093zm0 0"/><path d="m209.429688 174.675781c-19.757813-5.757812-41.035157.980469-53.878907 17.0625-12.84375 16.078125-14.714843 38.320313-4.734375 56.316407 1.019532 1.902343 2.980469 3.109374 5.136719 3.164062s4.179687-1.054688 5.292969-2.902344c1.109375-1.847656 1.144531-4.152344.089844-6.03125-6.746094-12.160156-6.46875-26.996094.730468-38.894531 7.195313-11.894531 20.210938-19.027344 34.109375-18.695313 13.902344.332032 26.558594 8.082032 33.179688 20.308594 1.589843 2.90625 5.238281 3.96875 8.144531 2.378906 2.90625-1.59375 3.96875-5.238281 2.378906-8.144531-6.433594-11.949219-17.40625-20.804687-30.449218-24.5625zm0 0"/></g></svg>